<?xml version="1.0" encoding="UTF-8"?>
<svg width="767px" height="730px" viewBox="0 0 767 730" version="1.1" xmlns="http://www.w3.org/2000/svg" xmlns:xlink="http://www.w3.org/1999/xlink">
    <!-- Generator: Sketch 49.1 (51147) - http://www.bohemiancoding.com/sketch -->
    <title>MTN_Logo</title>
    <desc>Created with Sketch.</desc>
    <defs></defs>
    <g id="Landing-Design" stroke="none" stroke-width="1" fill="none" fill-rule="evenodd">
        <g id="MTN_Logo" transform="translate(0.000000, -1.000000)" fill-rule="nonzero">
            <g id="g2396" transform="translate(0.495012, 0.610521)">
                <polygon id="path2408" fill="#FDCA03" points="0.266545507 365.386236 0.266545507 0.43020887 383.087553 0.43020887 765.908561 0.43020887 765.908561 365.386236 765.908561 730.342263 383.087553 730.342263 0.266545507 730.342263"></polygon>
                <path d="M248.368042,500.938255 C144.116235,484.033696 67.7135329,453.573598 31.7785333,414.58874 C12.9293457,394.13982 10.511193,388.706007 10.511193,366.799713 C10.511193,331.884243 33.301038,306.281837 88.6746675,278.989864 C222.208454,213.175072 472.412097,204.513109 632.438986,260.164973 C718.970111,290.257511 765.483731,337.030684 753.918402,382.322288 C748.482599,403.609791 720.79632,430.442787 684.692216,449.414988 C644.280763,470.650579 620.146144,478.892512 554.117024,494.00603 C492.850809,508.029376 316.726297,512.022607 248.368042,500.938255 Z" id="path2398" fill="#006C92"></path>
            </g>
            <path d="M174.16605,294.99356 L231.89848,294.99356 L224.81511,381.39856 L276.36033,294.99356 L333.89907,294.99356 L285.64135,437 L249.8006,437 L286.60392,328.70314 L222,437 L189.54967,437 L198.64911,328.70314 L161.8458,437 L125.90833,437 L174.16605,294.99356 Z M505.4498,294.99356 L546.42438,294.99356 L573.20189,373.55237 L599.89473,294.99356 L641.25669,294.99356 L592.99904,437 L551.63696,437 L524.95633,359.02239 L498.45723,437 L457.19202,437 L505.4498,294.99356 Z" id="flowRoot2436" fill="#FFFFFF"></path>
            <polygon id="flowRoot2455" fill="#FDCA03" points="351.81733 294.99356 485.28089 294.99356 473.35932 330.07987 428.58071 330.07987 400.18414 413.38938 356.2778 413.38938 384.67438 330.07987 339.89574 330.07987"></polygon>
            <polygon id="rect2464" stroke="#FF0000" stroke-width="1.08122122" fill="#FF0000" points="355.02247 418.54348 397.89042 418.54348 392.01934 436.4594 349.15139 436.4594"></polygon>
        </g>
    </g>
</svg>