<?xml version="1.0" encoding="UTF-8"?>
<svg width="746px" height="284px" viewBox="0 0 746 284" version="1.1" xmlns="http://www.w3.org/2000/svg" xmlns:xlink="http://www.w3.org/1999/xlink">
    <!-- Generator: Sketch 49.1 (51147) - http://www.bohemiancoding.com/sketch -->
    <title>MTN_Logo</title>
    <desc>Created with Sketch.</desc>
    <defs></defs>
    <g id="Landing-Design" stroke="none" stroke-width="1" fill="none" fill-rule="evenodd">
        <g id="MTN_Logo" transform="translate(-1.000000, -1.000000)" fill-rule="nonzero">
            <g id="g2396" transform="translate(0.495012, 0.610521)" fill="#006C92">
                <path d="M238.368042,277.938255 C134.116235,261.033696 57.7135329,230.573598 21.7785333,191.58874 C2.92934566,171.13982 0.511192967,165.706007 0.511192967,143.799713 C0.511192967,108.884243 23.301038,83.2818371 78.6746675,55.9898639 C212.208454,-9.82492785 462.412097,-18.4868912 622.438986,37.1649727 C708.970111,67.2575112 755.483731,114.030684 743.918402,159.322288 C738.482599,180.609791 710.79632,207.442787 674.692216,226.414988 C634.280763,247.650579 610.146144,255.892512 544.117024,271.00603 C482.850809,285.029376 306.726297,289.022607 238.368042,277.938255 Z" id="path2398"></path>
            </g>
            <path d="M164.16605,71.99356 L221.89848,71.99356 L214.81511,158.39856 L266.36033,71.99356 L323.89907,71.99356 L275.64135,214 L239.8006,214 L276.60392,105.70314 L212,214 L179.54967,214 L188.64911,105.70314 L151.8458,214 L115.90833,214 L164.16605,71.99356 Z M495.4498,71.99356 L536.42438,71.99356 L563.20189,150.55237 L589.89473,71.99356 L631.25669,71.99356 L582.99904,214 L541.63696,214 L514.95633,136.02239 L488.45723,214 L447.19202,214 L495.4498,71.99356 Z" id="flowRoot2436" fill="#FFFFFF"></path>
            <polygon id="flowRoot2455" fill="#FDCA03" points="341.81733 71.99356 475.28089 71.99356 463.35932 107.07987 418.58071 107.07987 390.18414 190.38938 346.2778 190.38938 374.67438 107.07987 329.89574 107.07987"></polygon>
            <polygon id="rect2464" stroke="#FF0000" stroke-width="1.08122122" fill="#FF0000" points="345.02247 195.54348 387.89042 195.54348 382.01934 213.4594 339.15139 213.4594"></polygon>
        </g>
    </g>
</svg>