<svg width="23" height="24" viewBox="0 0 23 24" version="1.1" xmlns="http://www.w3.org/2000/svg" xmlns:xlink="http://www.w3.org/1999/xlink">
<title>doc-icon</title>
<desc>Created using Figma</desc>
<g id="Canvas" transform="translate(-5927 6331)">
<g id="doc-icon">
<g id="Vector">
<use xlink:href="#path0_fill" transform="translate(5927 -6331)" fill="#4E9BD3"/>
</g>
<g id="Vector">
<use xlink:href="#path1_fill" transform="translate(5936.73 -6315.86)" fill="#4E9BD3"/>
</g>
<g id="Vector">
<use xlink:href="#path2_fill" transform="translate(5940.41 -6315.94)" fill="#4E9BD3"/>
</g>
<g id="Vector">
<use xlink:href="#path3_fill" transform="translate(5944.27 -6315.94)" fill="#4E9BD3"/>
</g>
</g>
</g>
<defs>
<path id="path0_fill" d="M 20.1086 12.5049L 19.7289 12.5049L 19.7289 6.62922L 13.6346 -1.75608e-07L 3.23717 -1.75608e-07C 1.45225 -1.75608e-07 3.53047e-08 1.41306 3.53047e-08 3.15036L 3.53047e-08 20.8496C 3.53047e-08 22.5867 1.45199 24 3.23717 24L 16.492 24C 18.2769 24 19.7292 22.5869 19.7292 20.8496L 19.7292 20.8384L 20.1089 20.8384C 21.4275 20.8384 22.5 19.7943 22.5 18.5111L 22.5 14.8319C 22.4997 13.5487 21.4272 12.5049 20.1086 12.5049ZM 14.0608 2.71529L 17.2329 6.16537L 14.0608 6.16537L 14.0608 2.71529ZM 18.1867 20.8496C 18.1867 21.7591 17.4265 22.4989 16.492 22.4989L 3.23717 22.4989C 2.30268 22.4989 1.54249 21.7591 1.54249 20.8496L 1.54249 3.15036C 1.54249 2.24093 2.30268 1.50113 3.23717 1.50113L 12.5183 1.50113L 12.5183 7.6665L 18.1867 7.6665L 18.1867 12.5049L 10.1174 12.5049C 8.79886 12.5049 7.72606 13.5489 7.72606 14.8321L 7.72606 18.5114C 7.72606 19.7946 8.79886 20.8386 10.1174 20.8386L 18.1867 20.8386L 18.1867 20.8496ZM 20.9573 18.5111C 20.9573 18.9665 20.5768 19.3373 20.1086 19.3373L 10.1174 19.3373C 9.64928 19.3373 9.26855 18.9667 9.26855 18.5111L 9.26855 14.8319C 9.26855 14.3765 9.64928 14.0058 10.1174 14.0058L 20.1086 14.0058C 20.5765 14.0058 20.9573 14.3763 20.9573 14.8319L 20.9573 18.5111Z"/>
<path id="path1_fill" d="M -2.66747e-07 2.29054e-07L 1.75458 2.29054e-07C 2.91144 2.29054e-07 3.31969 0.832624 3.31969 1.68376C 3.31969 2.71979 2.75591 3.37728 1.54583 3.37728L -2.66747e-07 3.37728L -2.66747e-07 2.29054e-07L -2.66747e-07 2.29054e-07ZM 1.06946 2.51163L 1.48722 2.51163C 2.15331 2.51163 2.25049 1.98649 2.25049 1.66975C 2.25049 1.45684 2.18236 0.865649 1.40958 0.865649L 1.06946 0.865649L 1.06946 2.51163Z"/>
<path id="path2_fill" d="M 1.75946 4.42837e-07C 2.81427 4.42837e-07 3.51893 0.737804 3.51893 1.76908C 3.51893 2.8001 2.81427 3.5379 1.75946 3.5379C 0.704659 3.5379 7.84549e-07 2.8001 7.84549e-07 1.76908C 7.84549e-07 0.737804 0.704916 4.42837e-07 1.75946 4.42837e-07ZM 1.75946 2.69602C 2.03171 2.69602 2.44973 2.52114 2.44973 1.76908C 2.44973 1.01701 2.03171 0.841881 1.75946 0.841881C 1.48721 0.841881 1.0692 1.01701 1.0692 1.76908C 1.0692 2.52114 1.48721 2.69602 1.75946 2.69602Z"/>
<path id="path3_fill" d="M 2.28931 1.3385C 2.27003 1.21566 2.17285 0.841881 1.73041 0.841881C 1.22988 0.841881 1.06946 1.31499 1.06946 1.76908C 1.06946 2.22292 1.22988 2.69602 1.73041 2.69602C 2.08981 2.69602 2.23095 2.45009 2.29419 2.1331L 3.34386 2.1331C 3.34386 2.81436 2.77519 3.5379 1.75946 3.5379C 0.63679 3.5379 -2.51056e-07 2.76708 -2.51056e-07 1.76908C -2.51056e-07 0.704779 0.690263 4.42837e-07 1.75946 4.42837e-07C 2.71195 0.0050042 3.23691 0.492119 3.3292 1.33875L 2.28931 1.33875L 2.28931 1.3385Z"/>
</defs>
</svg>
