<svg width="23" height="24" viewBox="0 0 23 24" version="1.1" xmlns="http://www.w3.org/2000/svg" xmlns:xlink="http://www.w3.org/1999/xlink">
<title>excel-icon</title>
<desc>Created using Figma</desc>
<g id="Canvas" transform="translate(-5646 6310)">
<g id="excel-icon">
<g id="Vector">
<use xlink:href="#path0_fill" transform="translate(5646.28 -6310)" fill="#4EC37F"/>
</g>
<g id="Vector">
<use xlink:href="#path1_fill" transform="translate(5656.17 -6294.86)" fill="#4EC37F"/>
</g>
<g id="Vector">
<use xlink:href="#path2_fill" transform="translate(5660 -6294.86)" fill="#4EC37F"/>
</g>
<g id="Vector">
<use xlink:href="#path3_fill" transform="translate(5662.77 -6294.94)" fill="#4EC37F"/>
</g>
</g>
</g>
<defs>
<path id="path0_fill" d="M 19.5694 12.5049L 19.1999 12.5049L 19.1999 6.62922L 13.269 -1.75608e-07L 3.15036 -1.75608e-07C 1.41331 -1.75608e-07 3.4358e-08 1.41306 3.4358e-08 3.15036L 3.4358e-08 20.8496C 3.4358e-08 22.5867 1.41306 24 3.15036 24L 16.0498 24C 17.7868 24 19.2002 22.5869 19.2002 20.8496L 19.2002 20.8384L 19.5697 20.8384C 20.8529 20.8384 21.8967 19.7943 21.8967 18.5111L 21.8967 14.8319C 21.8964 13.5487 20.8526 12.5049 19.5694 12.5049ZM 13.6838 2.71529L 16.7708 6.16537L 13.6838 6.16537L 13.6838 2.71529ZM 17.699 20.8496C 17.699 21.7591 16.9592 22.4989 16.0498 22.4989L 3.15036 22.4989C 2.24093 22.4989 1.50113 21.7591 1.50113 20.8496L 1.50113 3.15036C 1.50113 2.24093 2.24093 1.50113 3.15036 1.50113L 12.1826 1.50113L 12.1826 7.6665L 17.699 7.6665L 17.699 12.5049L 9.84614 12.5049C 8.56292 12.5049 7.51889 13.5489 7.51889 14.8321L 7.51889 18.5114C 7.51889 19.7946 8.56292 20.8386 9.84614 20.8386L 17.699 20.8386L 17.699 20.8496ZM 20.3953 18.5111C 20.3953 18.9665 20.025 19.3373 19.5694 19.3373L 9.84614 19.3373C 9.39054 19.3373 9.02002 18.9667 9.02002 18.5111L 9.02002 14.8319C 9.02002 14.3765 9.39054 14.0058 9.84614 14.0058L 19.5694 14.0058C 20.0248 14.0058 20.3953 14.3763 20.3953 14.8319L 20.3953 18.5111Z"/>
<path id="path1_fill" d="M 1.22042 1.57968L 0.109082 2.29054e-07L 1.3295 2.29054e-07L 1.84013 0.917688L 2.34176 2.29054e-07L 3.49562 2.29054e-07L 2.41256 1.58944L 3.61871 3.37728L 2.36502 3.37728L 1.78809 2.36978L 1.19189 3.37728L 7.63512e-07 3.37728L 1.22042 1.57968Z"/>
<path id="path2_fill" d="M -5.34458e-07 2.29054e-07L 1.04078 2.29054e-07L 1.04078 2.51163L 2.5354 2.51163L 2.5354 3.37728L -5.34458e-07 3.37728L -5.34458e-07 2.29054e-07Z"/>
<path id="path3_fill" d="M 1.04078 2.32274C 1.04078 2.40781 1.05504 2.48361 1.07856 2.54516C 1.15437 2.74856 1.38129 2.79084 1.57518 2.79084C 1.74556 2.79084 2.00575 2.73405 2.00575 2.48336C 2.00575 2.30848 1.85914 2.26095 1.27721 2.09557C 0.742807 1.94421 0.1326 1.7976 0.1326 1.11634C 0.1326 0.336002 0.7996 5.80269e-07 1.49487 5.80269e-07C 2.22817 5.80269e-07 2.87616 0.27921 2.90443 1.10208L 1.92044 1.10208C 1.93945 0.974231 1.88266 0.889166 1.7976 0.832624C 1.71228 0.771078 1.5942 0.747311 1.49012 0.747311C 1.34826 0.747311 1.11634 0.785089 1.11634 0.974231C 1.13535 1.21566 1.61771 1.2677 2.09557 1.40005C 2.57318 1.5324 3.04628 1.75482 3.04628 2.37453C 3.04628 3.25444 2.23743 3.5379 1.48536 3.5379C 1.10233 3.5379 0.00975822 3.4008 9.00944e-07 2.32249L 1.04078 2.32249L 1.04078 2.32274Z"/>
</defs>
</svg>
