<svg width="41" height="55" viewBox="0 0 41 55" version="1.1" xmlns="http://www.w3.org/2000/svg" xmlns:xlink="http://www.w3.org/1999/xlink">
<title>gold-plan</title>
<desc>Created using Figma</desc>
<g id="Canvas" transform="translate(11 3361)">
<g id="gold-plan">
<g id="Group">
<g id="Vector">
<use xlink:href="#path0_fill" transform="translate(-11 -3361)" fill="#333"/>
</g>
</g>
</g>
</g>
<defs>
<path id="path0_fill" d="M 40.811 30.7863C 40.3572 29.4212 39.1793 28.4454 37.735 28.2373L 32.9465 27.5521L 36.2861 4.27217C 36.4391 3.19743 36.1114 2.11043 35.3905 1.29058C 34.6675 0.470529 33.6175 0 32.5119 0L 8.37439 0C 7.26859 0 6.22053 0.470529 5.49774 1.28977C 4.77452 2.10982 4.44739 3.19661 4.60171 4.27258L 7.93947 27.5689L 3.26495 28.2365C 1.82018 28.4433 0.64148 29.4216 0.188485 30.7902C -0.261603 32.1575 0.107689 33.6304 1.15409 34.6332L 8.06139 41.26L 6.43073 50.6183C 6.18481 52.036 6.76637 53.4408 7.94964 54.2869C 9.09989 55.1087 10.7031 55.2208 11.9614 54.5697L 20.5 50.152L 29.0415 54.571C 29.5865 54.8504 30.1994 55 30.8134 55C 31.6221 55 32.3952 54.7547 33.0555 54.2848C 34.2338 53.4363 34.8133 52.0335 34.5698 50.616L 32.9392 41.259L 39.8477 34.6334C 40.8916 33.6324 41.2622 32.1597 40.811 30.7863ZM 14.9301 22.6484L 12.7585 7.49883L 28.1247 7.49883L 25.9775 22.4713L 23.9156 18.3578C 23.2684 17.0686 21.9584 16.268 20.4964 16.268C 19.0357 16.268 17.7274 17.0686 17.0802 18.3588L 14.9301 22.6484ZM 7.33444 2.85874C 7.59448 2.56175 7.97395 2.39353 8.37419 2.39353L 32.5117 2.39353C 32.912 2.39353 33.2931 2.56359 33.5534 2.85874C 33.8146 3.15553 33.932 3.54941 33.8776 3.93859L 30.7791 25.5421L 28.1866 25.1711L 28.0784 24.956L 30.9251 5.1051L 9.95977 5.1051L 12.8314 25.1343L 10.1083 25.558L 7.00959 3.93981C 6.95393 3.54941 7.07149 3.15553 7.33444 2.85874ZM 38.1494 32.9217L 30.3253 40.425L 32.1721 51.0224C 32.26 51.5377 32.0486 52.0474 31.6259 52.3512C 31.3883 52.5219 31.1068 52.6118 30.8136 52.6118C 30.5903 52.6106 30.3693 52.5568 30.1734 52.4562L 20.5002 47.4495L 10.8309 52.4564C 10.3773 52.6903 9.78925 52.6482 9.37967 52.3536C 8.95159 52.0474 8.7414 51.5379 8.8303 51.0246L 10.6778 40.4275L 2.85287 32.9227C 2.4734 32.5593 2.33923 32.025 2.50144 31.532C 2.66532 31.0376 3.09235 30.6835 3.61555 30.6075L 14.432 29.0624L 19.2633 19.4207C 19.4972 18.9538 19.9712 18.6638 20.4991 18.6638C 21.0282 18.6638 21.5028 18.9536 21.7372 19.4194L 26.5727 29.06L 37.3883 30.6073C 37.9037 30.6809 38.3396 31.0445 38.5025 31.5283C 38.6613 32.024 38.5272 32.5569 38.1494 32.9217Z"/>
</defs>
</svg>
