<svg width="22" height="24" viewBox="0 0 22 24" version="1.1" xmlns="http://www.w3.org/2000/svg" xmlns:xlink="http://www.w3.org/1999/xlink">
<title>pdf-icon</title>
<desc>Created using Figma</desc>
<g id="Canvas" transform="translate(-5535 6148)">
<g id="pdf-icon">
<g id="Vector">
<use xlink:href="#path0_fill" transform="translate(5550.28 -6132)" fill="#F16E3C"/>
</g>
<g id="Vector">
<use xlink:href="#path1_fill" transform="translate(5546.95 -6132)" fill="#F16E3C"/>
</g>
<g id="Vector">
<use xlink:href="#path2_fill" transform="translate(5535.78 -6148)" fill="#F16E3C"/>
</g>
</g>
</g>
<defs>
<path id="path0_fill" d="M 7.17701e-07 0L 7.17701e-07 1.64624L 0.406556 1.64624C 1.05479 1.64624 1.14936 1.12084 1.14936 0.804352C 1.14936 0.591192 1.08306 0 0.330998 0L 7.17701e-07 0Z"/>
<path id="path1_fill" d="M -5.80269e-07 0.000250188L -5.80269e-07 0.686264L 0.401801 0.686264C 0.671504 0.686264 0.955216 0.667251 0.955216 0.326495C 0.955216 0.0190145 0.71879 1.37432e-07 0.463348 1.37432e-07L -5.80269e-07 1.37432e-07L -5.80269e-07 0.000250188Z"/>
<path id="path2_fill" d="M 19.5694 13.2554L 19.1999 13.2554L 19.1999 6.62922L 13.269 -1.75608e-07L 3.15036 -1.75608e-07C 1.41331 -1.75608e-07 3.4358e-08 1.41306 3.4358e-08 3.15036L 3.4358e-08 20.8496C 3.4358e-08 22.5867 1.41306 24 3.15036 24L 16.0498 24C 17.7868 24 19.2002 22.5869 19.2002 20.8496L 19.2002 20.0878L 19.5694 20.0878C 20.4401 20.0878 21.1459 19.3818 21.1459 18.5111L 21.1459 14.8319C 21.1459 13.9612 20.4403 13.2554 19.5694 13.2554ZM 13.6838 2.71529L 16.7708 6.16537L 13.6838 6.16537L 13.6838 2.71529ZM 17.699 20.8496C 17.699 21.7591 16.9592 22.4989 16.0498 22.4989L 3.15036 22.4989C 2.24093 22.4989 1.50113 21.7591 1.50113 20.8496L 1.50113 3.15036C 1.50113 2.24093 2.24093 1.50113 3.15036 1.50113L 12.1826 1.50113L 12.1826 7.6665L 17.699 7.6665L 17.699 13.2554L 9.84614 13.2554C 8.97548 13.2554 8.26945 13.9612 8.26945 14.8321L 8.26945 18.5114C 8.26945 19.3818 8.97523 20.0881 9.84614 20.0881L 17.699 20.0881L 17.699 20.8496ZM 16.6848 16.8214C 16.6848 17.8574 16.1361 18.5146 14.9585 18.5146L 13.4541 18.5146L 13.4541 15.1376L 15.1616 15.1376C 16.2875 15.1376 16.6848 15.9702 16.6848 16.8214ZM 13.1041 16.2917C 13.1041 17.1098 12.5554 17.4929 11.7796 17.4929L 11.1649 17.4929L 11.1649 18.5146L 10.1241 18.5146L 10.1241 15.1376L 11.8649 15.1376C 12.7823 15.1376 13.1041 15.8091 13.1041 16.2917ZM 19.7453 16.003L 18.1751 16.003L 18.1751 16.4243L 19.5231 16.4243L 19.5231 17.2282L 18.1751 17.2282L 18.1751 18.5149L 17.1344 18.5149L 17.1344 15.1376L 19.7456 15.1376L 19.7456 16.003L 19.7453 16.003Z"/>
</defs>
</svg>
